<svg xmlns="http://www.w3.org/2000/svg" width="803.255" height="659.379" viewBox="0 0 803.255 659.379">
  <path id="Path_1" data-name="Path 1" d="M473.9,731.531l.707-15.9a51.352,51.352,0,0,1,23.953-6.063c-11.5,9.405-10.066,27.536-17.866,40.184a30.889,30.889,0,0,1-22.651,14.274l-9.627,5.894a51.76,51.76,0,0,1,10.91-41.943,50,50,0,0,1,9.189-8.538C470.825,725.519,473.9,731.531,473.9,731.531Z" transform="translate(-314.789 -112.516)" fill="#f2f2f2"/>
  <path id="Path_6" data-name="Path 6" d="M510.012,392.241a8.694,8.694,0,0,1-4.194-1.092,8.581,8.581,0,0,1-4.508-7.62V311.706a8.694,8.694,0,0,1,13.356-7.339L582.8,340.279a8.695,8.695,0,0,1,0,14.677l-68.132,35.911a8.653,8.653,0,0,1-4.653,1.374Z" transform="translate(-316.689 -102)" fill="#f2f2f2"/>
  <path id="Path_11" data-name="Path 11" d="M841.116,587.788H733.063a8.51,8.51,0,0,1-8.5-8.5v-53.78a8.51,8.51,0,0,1,8.5-8.5H841.116a8.51,8.51,0,0,1,8.5,8.5v53.78A8.51,8.51,0,0,1,841.116,587.788Z" transform="translate(-620.63 -406.379)" fill="#fff"/>
  <path id="Path_12" data-name="Path 12" d="M841.116,588.788H733.064a9.511,9.511,0,0,1-9.5-9.5V525.509a9.511,9.511,0,0,1,9.5-9.5H841.116a9.511,9.511,0,0,1,9.5,9.5v53.78A9.511,9.511,0,0,1,841.116,588.788ZM733.064,518.009a7.508,7.508,0,0,0-7.5,7.5v53.78a7.508,7.508,0,0,0,7.5,7.5H841.116a7.508,7.508,0,0,0,7.5-7.5v-53.78a7.508,7.508,0,0,0-7.5-7.5Z" transform="translate(-620.63 -406.362)" fill="#ccc"/>
  <path id="Path_13" data-name="Path 13" d="M823.364,614.248H750.576a8.076,8.076,0,0,1,0-16.151h72.789a8.076,8.076,0,0,1,0,16.151Z" transform="translate(-620.63 -408.123)" fill="#e6e6e6"/>
  <path id="Path_14" data-name="Path 14" d="M775.208,573.181a3.633,3.633,0,0,1-1.753-.457,3.586,3.586,0,0,1-1.884-3.184V539.527a3.633,3.633,0,0,1,5.581-3.067l28.471,15.007a3.633,3.633,0,0,1,0,6.133l-28.471,15.006a3.615,3.615,0,0,1-1.945.574Z" transform="translate(-625.125 -406.699)" fill="red"/>
  <path id="Path_15" data-name="Path 15" d="M474.2,401.724l-55.3.371s-31.5-10.154-45.781-8.032l-5.462,21.455,39.235,13,68.284-9.907a9.774,9.774,0,1,0-.971-16.886Z" transform="translate(-310.63 -103.813)" fill="#a0616a"/>
  <path id="Path_16" data-name="Path 16" d="M406.424,430.6l-65.613-18.871-5.973-22.258a17.974,17.974,0,0,1,1.389-18.921h0c5.6-7.586,9.98-.051,17.929,5.022,13.936.985,48.72,12.887,62.84,26.668l-1.113,8.471Z" transform="translate(-310.63 -103.463)" fill="#0abb87"/>
  <path id="Path_17" data-name="Path 17" d="M463.512,412.427a8.7,8.7,0,0,1-4.194-1.092,8.581,8.581,0,0,1-4.508-7.62V331.892a8.694,8.694,0,0,1,13.356-7.339L536.3,360.465a8.695,8.695,0,0,1,0,14.677l-68.131,35.911a8.653,8.653,0,0,1-4.654,1.374Z" transform="translate(-315.211 -102.559)" fill="#f01"/>
  <path id="Path_18" data-name="Path 18" d="M147.978,631.089h13.959l6.64-53.84h-20.6Z" transform="translate(-40.866 14.765)" fill="#a0616a"/>
  <path id="Path_19" data-name="Path 19" d="M414.181,753.807h3.929l15.339-6.238,8.221,6.237h0a17.519,17.519,0,0,1,17.518,17.517v.57l-45.008,0Z" transform="translate(-310.63 -112.516)" fill="#2f2e41"/>
  <path id="Path_20" data-name="Path 20" d="M48.578,617.948,61.8,622.424l23.558-48.865-19.513-6.607Z" transform="translate(-40.866 14.765)" fill="#a0616a"/>
  <path id="Path_21" data-name="Path 21" d="M316.431,739.765l3.721,1.26,16.53-.989,5.786,8.544h0a17.519,17.519,0,0,1,10.974,22.211l-.183.539L310.63,756.9Z" transform="translate(-310.63 -112.516)" fill="#2f2e41"/>
  <path id="Path_22" data-name="Path 22" d="M334.522,526.457s-1.63,19.559,2.445,38.3,12.844,80.964,12.844,80.964c-17.762,29.194-28.056,57.921-30,87l25,2,35.8-84.934,3.627-85.03,26.078,57.862-1.341,4.47a5.036,5.036,0,0,0,2.153,5.717h0s-2.442,15.892-.812,15.892,5.7,2.445,5.7,2.445c-10.16,31.628-11.524,61.917-2.206,90.58l22-1L450.245,616.1l-10.594-67.641-.815-13.039-3.667.151-1.867-5.448-3.43-9.372Z" transform="translate(-310.63 -112.516)" fill="#2f2e41"/>
  <path id="Path_23" data-name="Path 23" d="M333.113,530.565l-.145-.2c-7.757-10.86,3.91-36.957,5.669-40.74l-7.411-2.405-6.481-54.84-4.739-18.945a41.592,41.592,0,0,1,11.805-40.308l10.956-10.33,13.315-19.7h21.47L384.914,357a31.3,31.3,0,0,1,24.214,31.952l-1.669,36.471,6.532,45.41,0,8.218,11.34,18.593,2.47,11.527c1.022,1.349,7.77,10.346,7.77,12.806,0,.369-.273.726-.858,1.122-4.6,3.114-30.015,9.462-41.264,4.961-11.982-4.791-59.614,2.4-60.094,2.47Z" transform="translate(-310.63 -104.486)" fill="#0abb87"/>
  <circle id="Ellipse_1" data-name="Ellipse 1" cx="28.436" cy="28.436" r="28.436" transform="translate(31.524 182.666)" fill="#a0616a"/>
  <path id="Path_25" data-name="Path 25" d="M475.15,330.128,431.277,363.8s-31.242,10.913-41.352,21.225l8.593,20.4,39.129-13.314,48.467-49.11a9.774,9.774,0,1,0-10.965-12.878Z" transform="translate(-310.63 -102.492)" fill="#a0616a"/>
  <path id="Path_26" data-name="Path 26" d="M438.529,394.055,377.582,411.9l-20.955-7.436a17.974,17.974,0,0,1-10.311-15.926h0c-.112-9.43,7.927-6.064,17.327-6.816,11.706-7.625,46.624-19.127,66.2-16.661l4.225,7.426Z" transform="translate(-310.63 -103.212)" fill="#0abb87"/>
  <path id="Path_27" data-name="Path 27" d="M389.089,275.465c-2.038-.061-1.338-3.9-2.98-5.128q-.012.056-.025.111a4,4,0,0,1-7.648.326,6.082,6.082,0,0,0-3.862-4.052c-.1,3.561-2.8,6.651-6.009,8.189s-6.877,1.794-10.438,1.846-7.175-.067-10.629.8-6.813,2.921-8.289,6.163-.423,7.706,2.8,9.215c-2.5.013-4.621,2.076-5.485,4.422a17.558,17.558,0,0,0-.542,7.419c.7,9.2,2.415,19.095,9.111,25.436,5.1,4.833,12.407,6.78,19.435,6.752s5.793-.674,12.588-2.468c0,0,6.461-18.521,4.834-20.344s-2.978-4.154-2.684-6.578,2.9-4.6,5.162-3.674c-.38-.972-.667-1.157-.846-1.108a8.59,8.59,0,0,0,.3-.845,9.616,9.616,0,0,1,6.005-6.368,7.457,7.457,0,0,1,8.151,2.467C405.483,291.073,400.866,275.815,389.089,275.465Z" transform="translate(-310.63 -98.9)" fill="#2f2e41"/>
  <circle id="Ellipse_5" data-name="Ellipse 5" cx="12.372" cy="12.372" r="12.372" transform="translate(222.261 179.859)" fill="#3f3d56"/>
  <path id="Path_33" data-name="Path 33" d="M848.937,590.006l-.079,0a1.618,1.618,0,0,1-1.2-.623l-2.068-2.658a1.619,1.619,0,0,1,.284-2.272l.074-.058a1.618,1.618,0,0,1,2.272.284,1.181,1.181,0,0,0,1.788.087l4.2-4.432a1.621,1.621,0,0,1,2.289-.062l.069.066a1.618,1.618,0,0,1,.062,2.289l-6.515,6.877a1.617,1.617,0,0,1-1.175.506Z" transform="translate(-615.348 -392.904)" fill="#fff"/>
  <path id="Path_35" data-name="Path 35" d="M893.522,574.209A320.326,320.326,0,0,0,799.4,701.477c-.9,2.2,2.675,3.158,3.562.982a316.758,316.758,0,0,1,93.17-125.638c1.844-1.5-.783-4.1-2.612-2.612Z" transform="translate(-121.583 -203.251)" fill="#fff"/>
  <path id="Path_36" data-name="Path 36" d="M434,707.116H383a6.507,6.507,0,0,1-6.5-6.5v-106a6.507,6.507,0,0,1,6.5-6.5h51a6.508,6.508,0,0,1,6.5,6.5v106a6.507,6.507,0,0,1-6.5,6.5Z" transform="translate(-106.627 -203.447)" fill="red"/>
  <path id="Path_37" data-name="Path 37" d="M555,708.116H504a7.508,7.508,0,0,1-7.5-7.5v-206a7.508,7.508,0,0,1,7.5-7.5h51a7.508,7.508,0,0,1,7.5,7.5v206A7.508,7.508,0,0,1,555,708.116Zm-51-219a5.506,5.506,0,0,0-5.5,5.5v206a5.506,5.506,0,0,0,5.5,5.5h51a5.506,5.506,0,0,0,5.5-5.5v-206a5.506,5.506,0,0,0-5.5-5.5Z" transform="translate(-110.365 -205.432)" fill="#3f3d56"/>
  <path id="Path_38" data-name="Path 38" d="M676,708.116H625a7.508,7.508,0,0,1-7.5-7.5v-337a7.508,7.508,0,0,1,7.5-7.5h51a7.508,7.508,0,0,1,7.5,7.5v337A7.508,7.508,0,0,1,676,708.116Zm-51-350a5.506,5.506,0,0,0-5.5,5.5v337a5.506,5.506,0,0,0,5.5,5.5h51a5.506,5.506,0,0,0,5.5-5.5v-337a5.506,5.506,0,0,0-5.5-5.5Z" transform="translate(-114.111 -205.127)" fill="#3f3d56"/>
  <path id="Path_39" data-name="Path 39" d="M798.129,707.616h-51a6.507,6.507,0,0,1-6.5-6.5v-475a6.508,6.508,0,0,1,6.5-6.5h51a6.507,6.507,0,0,1,6.5,6.5v475a6.507,6.507,0,0,1-6.5,6.5Z" transform="translate(-119.986 -204.105)" fill="red"/>
  <path id="Path_40" data-name="Path 40" d="M480.942,414.242a10.056,10.056,0,0,0-10.482-11.309l-17.777-32.608-4,14,12.179,29.886a10.11,10.11,0,0,0,20.08.032Z" transform="translate(-108.425 -196.538)" fill="#a0616a"/>
  <path id="Path_41" data-name="Path 41" d="M68.816,351.113l9.9,7.229,32.595-34.753L96.7,312.92Z" transform="translate(169.748 -8.065)" fill="#a0616a"/>
  <path id="Path_42" data-name="Path 42" d="M0,0H38.531V14.887H14.887A14.887,14.887,0,0,1,0,0H0Z" transform="matrix(-0.808, -0.59, 0.59, -0.808, 261.137, 372.687)" fill="#2f2e41"/>
  <path id="Path_43" data-name="Path 43" d="M121.2,389.377h12.26l5.832-47.288H121.2Z" transform="translate(168.445 -8.843)" fill="#a0616a"/>
  <path id="Path_44" data-name="Path 44" d="M0,0H38.531V14.887H14.887A14.887,14.887,0,0,1,0,0H0Z" transform="translate(325.401 391.275) rotate(179.997)" fill="#2f2e41"/>
  <path id="Path_45" data-name="Path 45" d="M433.183,396.825s6,58-9,98l-11,76h-19l2-90-7-80S403.183,364.825,433.183,396.825Z" transform="translate(-106.802 -198.26)" fill="#2f2e41"/>
  <path id="Path_46" data-name="Path 46" d="M93.021,208.94l20,69-39,62,19.5,16.5,44.5-69.5-13-85Z" transform="translate(169.379 -6.295)" fill="#2f2e41"/>
  <circle id="Ellipse_6" data-name="Ellipse 6" cx="24.561" cy="24.561" r="24.561" transform="translate(287.615 5.092)" fill="#a0616a"/>
  <path id="Path_47" data-name="Path 47" d="M398.683,255.325s15-10,32,12l4.5,138.5s-13-18-40-1-33-2-33-2S343.183,259.825,398.683,255.325Z" transform="translate(-106.219 -191.885)" fill="#0abb87"/>
  <path id="Path_48" data-name="Path 48" d="M429.473,266.975h0a17.506,17.506,0,0,1,16.537,16.56l3.173,60.289,21,57-12,10-39-68L411.2,286.931a17.506,17.506,0,0,1,18.275-19.956Z" transform="translate(-107.632 -191.885)" fill="#0abb87"/>
  <path id="Path_49" data-name="Path 49" d="M401.14,239.961c4.015,4.277,11.472,1.981,12-3.862a7.06,7.06,0,0,0-.009-1.363c-.27-2.588-1.765-4.938-1.407-7.671a4.022,4.022,0,0,1,.736-1.883c3.2-4.285,10.711,1.916,13.73-1.962,1.852-2.378-.325-6.123,1.1-8.781,1.875-3.508,7.43-1.778,10.914-3.7,3.876-2.138,3.644-8.084,1.093-11.7-3.111-4.411-8.567-6.765-13.954-7.1s-10.737,1.117-15.767,3.077c-5.715,2.227-11.381,5.3-14.9,10.33-4.277,6.111-4.688,14.326-2.549,21.471C393.421,231.158,397.861,236.468,401.14,239.961Z" transform="translate(-106.911 -191.885)" fill="#2f2e41"/>
  <path id="Path_50" data-name="Path 50" d="M923.647,707.691H276.353a1.191,1.191,0,1,1,0-2.381H923.647a1.191,1.191,0,1,1,0,2.381Z" transform="translate(-121.583 -204.271)" fill="#3f3d56"/>
</svg>
